<svg width="496" height="233" viewBox="0 0 496 233" fill="none" xmlns="http://www.w3.org/2000/svg">
<g clip-path="url(#clip0)">
<path d="M11.4583 71.0802V13.9708H26.9661V71.0802H11.4583ZM64.7786 25.8067C61.1067 25.8067 58.2421 27.3171 56.1848 30.338C54.1275 33.3328 53.0989 37.4734 53.0989 42.7598C53.0989 53.7494 57.2786 59.2442 65.6379 59.2442C68.164 59.2442 70.6119 58.8927 72.9817 58.1895C75.3515 57.4864 77.7343 56.6401 80.1301 55.6505V68.6973C75.3645 70.8067 69.9739 71.8614 63.9582 71.8614C55.3385 71.8614 48.7239 69.3614 44.1145 64.3614C39.5312 59.3614 37.2395 52.1348 37.2395 42.6817C37.2395 36.7703 38.3463 31.5749 40.5598 27.0958C42.7994 22.6166 46.0025 19.1791 50.1692 16.7833C54.3619 14.3614 59.2838 13.1505 64.9348 13.1505C71.1067 13.1505 77.0051 14.4916 82.6301 17.1739L77.9036 29.3223C75.7942 28.3328 73.6848 27.4994 71.5754 26.8223C69.4661 26.1453 67.2004 25.8067 64.7786 25.8067ZM114.232 37.6427H138.88V68.4239C132.187 70.7156 124.831 71.8614 116.81 71.8614C108.008 71.8614 101.198 69.3093 96.3801 64.2052C91.5885 59.101 89.1926 51.8223 89.1926 42.3692C89.1926 33.1505 91.8228 25.976 97.0832 20.8458C102.344 15.7156 109.713 13.1505 119.193 13.1505C122.786 13.1505 126.172 13.489 129.349 14.1661C132.552 14.8432 135.338 15.7026 137.708 16.7442L132.825 28.8536C128.711 26.8223 124.193 25.8067 119.271 25.8067C114.766 25.8067 111.276 27.2781 108.802 30.2208C106.354 33.1374 105.13 37.3171 105.13 42.7598C105.13 48.0984 106.237 52.1739 108.45 54.9864C110.69 57.7729 113.906 59.1661 118.099 59.1661C120.391 59.1661 122.5 58.9447 124.427 58.502V49.5567H114.232V37.6427ZM150.521 71.0802V13.9708H165.95V58.6192H187.943V71.0802H150.521ZM227.708 71.0802H212.044V40.8458C212.044 37.1739 212.122 33.8145 212.279 30.7677C211.315 31.9395 210.117 33.1635 208.685 34.4395L202.2 39.7911L194.193 29.9473L213.802 13.9708H227.708V71.0802ZM263.724 33.6583C267.005 33.6583 269.961 34.4265 272.591 35.963C275.247 37.4734 277.305 39.6218 278.763 42.4083C280.247 45.1947 280.989 48.4109 280.989 52.0567C280.989 58.4369 279.062 63.3328 275.208 66.7442C271.38 70.1557 265.573 71.8614 257.786 71.8614C251.12 71.8614 245.677 70.8328 241.458 68.7755V56.1192C243.724 57.1609 246.276 58.0203 249.114 58.6973C251.979 59.3744 254.44 59.713 256.497 59.713C259.362 59.713 261.562 59.114 263.099 57.9161C264.635 56.6921 265.404 54.8953 265.404 52.5255C265.404 50.338 264.622 48.6322 263.06 47.4083C261.497 46.1843 259.128 45.5723 255.95 45.5723C253.529 45.5723 250.911 46.0281 248.099 46.9395L242.435 44.127L244.583 13.9708H277.161V26.8223H257.708L257.005 34.3614C259.036 33.9708 260.482 33.7624 261.341 33.7364C262.2 33.6843 262.995 33.6583 263.724 33.6583Z" fill="#3ABEAB"/>
<path d="M15.9504 113.915H12.7375V101.009C12.7375 99.4687 12.774 98.2473 12.8469 97.345C12.6373 97.5638 12.3775 97.8053 12.0676 98.0696C11.7668 98.3339 10.746 99.1725 9.00513 100.585L7.39185 98.5481L13.2708 93.927H15.9504V113.915ZM29.2942 101.433C31.3085 101.433 32.9036 101.966 34.0793 103.033C35.2551 104.099 35.843 105.553 35.843 107.394C35.843 109.527 35.1731 111.195 33.8333 112.398C32.5025 113.592 30.6067 114.189 28.1458 114.189C25.9127 114.189 24.1581 113.829 22.8821 113.109V110.197C23.6204 110.616 24.468 110.939 25.425 111.167C26.3821 111.395 27.2708 111.509 28.0911 111.509C29.5403 111.509 30.6431 111.185 31.3997 110.538C32.1562 109.891 32.5344 108.943 32.5344 107.695C32.5344 105.307 31.0123 104.113 27.968 104.113C27.5396 104.113 27.011 104.158 26.3821 104.249C25.7532 104.331 25.2017 104.427 24.7278 104.536L23.2922 103.689L24.0579 93.927H34.4485V96.7845H26.8879L26.4368 101.734C26.7558 101.679 27.1431 101.615 27.5989 101.542C28.0637 101.469 28.6288 101.433 29.2942 101.433ZM45.2083 111.591C45.9921 111.591 46.776 111.468 47.5598 111.222V113.642C47.2043 113.797 46.7441 113.924 46.179 114.025C45.623 114.134 45.0442 114.189 44.4426 114.189C41.3984 114.189 39.8762 112.585 39.8762 109.376V101.228H37.8118V99.8059L40.0266 98.6302L41.1204 95.4309H43.1028V98.7942H47.4094V101.228H43.1028V109.322C43.1028 110.096 43.2942 110.671 43.677 111.044C44.0689 111.409 44.5793 111.591 45.2083 111.591ZM63.8977 113.915H60.6711V104.618C60.6711 103.452 60.4342 102.581 59.9602 102.007C59.4954 101.433 58.7525 101.146 57.7317 101.146C56.3827 101.146 55.3892 101.551 54.7512 102.363C54.1223 103.165 53.8079 104.514 53.8079 106.409V113.915H50.595V92.6419H53.8079V98.0423C53.8079 98.9082 53.7532 99.8333 53.6438 100.818H53.8489C54.2864 100.088 54.8925 99.5234 55.6672 99.1223C56.4511 98.7213 57.3625 98.5208 58.4016 98.5208C62.0657 98.5208 63.8977 100.366 63.8977 104.058V113.915ZM75.9836 113.915V93.927H79.2512V113.915H75.9836ZM101.195 113.915H97.1887L87.3586 97.9876H87.2493L87.3176 98.8763C87.4452 100.572 87.509 102.121 87.509 103.525V113.915H84.5422V93.927H88.5071L98.3098 109.773H98.3918C98.3736 109.563 98.3372 108.802 98.2825 107.49C98.2278 106.168 98.2004 105.138 98.2004 104.4V93.927H101.195V113.915ZM113.376 113.915H110.109V96.7298H104.23V93.927H119.255V96.7298H113.376V113.915ZM133.638 113.915H122.331V93.927H133.638V96.6888H125.599V102.13H133.132V104.865H125.599V111.14H133.638V113.915ZM141.24 103.224H143.509C145.031 103.224 146.134 102.941 146.818 102.376C147.501 101.811 147.843 100.973 147.843 99.8606C147.843 98.7304 147.474 97.9192 146.736 97.427C145.997 96.9348 144.885 96.6888 143.4 96.6888H141.24V103.224ZM141.24 105.931V113.915H137.972V93.927H143.618C146.198 93.927 148.107 94.4101 149.347 95.3763C150.587 96.3424 151.206 97.8007 151.206 99.7513C151.206 102.24 149.912 104.012 147.323 105.07L152.97 113.915H149.251L144.466 105.931H141.24ZM172.534 113.915H168.529L158.698 97.9876H158.589L158.657 98.8763C158.785 100.572 158.849 102.121 158.849 103.525V113.915H155.882V93.927H159.847L169.65 109.773H169.732C169.713 109.563 169.677 108.802 169.622 107.49C169.568 106.168 169.54 105.138 169.54 104.4V93.927H172.534V113.915ZM190.212 113.915L188.216 108.365H180.573L178.618 113.915H175.173L182.652 93.845H186.206L193.685 113.915H190.212ZM187.355 105.548L185.482 100.107C185.345 99.7421 185.154 99.1679 184.907 98.3841C184.67 97.6002 184.506 97.026 184.415 96.6614C184.169 97.7825 183.809 99.0084 183.335 100.339L181.531 105.548H187.355ZM203.228 113.915H199.96V96.7298H194.081V93.927H209.107V96.7298H203.228V113.915ZM212.183 113.915V93.927H215.45V113.915H212.183ZM238.488 103.894C238.488 107.148 237.672 109.677 236.04 111.482C234.418 113.286 232.116 114.189 229.136 114.189C226.119 114.189 223.799 113.296 222.177 111.509C220.564 109.713 219.757 107.166 219.757 103.866C219.757 100.567 220.568 98.0332 222.191 96.2649C223.822 94.4967 226.146 93.6126 229.163 93.6126C232.135 93.6126 234.432 94.5104 236.054 96.3059C237.676 98.1015 238.488 100.631 238.488 103.894ZM223.23 103.894C223.23 106.355 223.726 108.223 224.72 109.499C225.713 110.766 227.185 111.4 229.136 111.4C231.077 111.4 232.54 110.771 233.525 109.513C234.518 108.255 235.015 106.382 235.015 103.894C235.015 101.442 234.523 99.5826 233.538 98.3157C232.563 97.0488 231.105 96.4153 229.163 96.4153C227.204 96.4153 225.723 97.0488 224.72 98.3157C223.726 99.5826 223.23 101.442 223.23 103.894ZM259.433 113.915H255.427L245.597 97.9876H245.488L245.556 98.8763C245.684 100.572 245.747 102.121 245.747 103.525V113.915H242.781V93.927H246.745L256.548 109.773H256.63C256.612 109.563 256.575 108.802 256.521 107.49C256.466 106.168 256.439 105.138 256.439 104.4V93.927H259.433V113.915ZM277.111 113.915L275.115 108.365H267.472L265.517 113.915H262.072L269.55 93.845H273.105L280.583 113.915H277.111ZM274.253 105.548L272.38 100.107C272.243 99.7421 272.052 99.1679 271.806 98.3841C271.569 97.6002 271.405 97.026 271.314 96.6614C271.068 97.7825 270.708 99.0084 270.234 100.339L268.429 105.548H274.253ZM283.222 113.915V93.927H286.49V111.113H294.952V113.915H283.222ZM314.175 96.4427C312.297 96.4427 310.821 97.108 309.745 98.4388C308.67 99.7695 308.132 101.606 308.132 103.949C308.132 106.4 308.647 108.255 309.677 109.513C310.716 110.771 312.215 111.4 314.175 111.4C315.023 111.4 315.843 111.318 316.636 111.154C317.429 110.98 318.254 110.762 319.111 110.497V113.3C317.543 113.893 315.766 114.189 313.779 114.189C310.853 114.189 308.606 113.305 307.038 111.536C305.471 109.759 304.687 107.221 304.687 103.921C304.687 101.843 305.065 100.025 305.822 98.4661C306.587 96.9075 307.69 95.7135 309.13 94.8841C310.57 94.0546 312.261 93.6399 314.202 93.6399C316.244 93.6399 318.131 94.0683 319.863 94.9251L318.687 97.6458C318.012 97.3268 317.297 97.0488 316.54 96.8118C315.793 96.5657 315.004 96.4427 314.175 96.4427ZM341.163 103.894C341.163 107.148 340.348 109.677 338.716 111.482C337.094 113.286 334.792 114.189 331.812 114.189C328.795 114.189 326.475 113.296 324.853 111.509C323.24 109.713 322.433 107.166 322.433 103.866C322.433 100.567 323.244 98.0332 324.866 96.2649C326.498 94.4967 328.822 93.6126 331.839 93.6126C334.81 93.6126 337.107 94.5104 338.73 96.3059C340.352 98.1015 341.163 100.631 341.163 103.894ZM325.906 103.894C325.906 106.355 326.402 108.223 327.396 109.499C328.389 110.766 329.861 111.4 331.812 111.4C333.753 111.4 335.216 110.771 336.2 109.513C337.194 108.255 337.691 106.382 337.691 103.894C337.691 101.442 337.198 99.5826 336.214 98.3157C335.239 97.0488 333.781 96.4153 331.839 96.4153C329.879 96.4153 328.398 97.0488 327.396 98.3157C326.402 99.5826 325.906 101.442 325.906 103.894ZM362.109 113.915H358.103L348.273 97.9876H348.163L348.232 98.8763C348.359 100.572 348.423 102.121 348.423 103.525V113.915H345.456V93.927H349.421L359.224 109.773H359.306C359.288 109.563 359.251 108.802 359.197 107.49C359.142 106.168 359.115 105.138 359.115 104.4V93.927H362.109V113.915ZM370.626 113.915H367.386V93.927H378.665V96.6888H370.626V102.937H378.159V105.712H370.626V113.915ZM393.595 113.915H382.288V93.927H393.595V96.6888H385.556V102.13H393.089V104.865H385.556V111.14H393.595V113.915ZM401.197 103.224H403.466C404.988 103.224 406.091 102.941 406.775 102.376C407.458 101.811 407.8 100.973 407.8 99.8606C407.8 98.7304 407.431 97.9192 406.693 97.427C405.954 96.9348 404.842 96.6888 403.357 96.6888H401.197V103.224ZM401.197 105.931V113.915H397.929V93.927H403.575C406.155 93.927 408.064 94.4101 409.304 95.3763C410.544 96.3424 411.163 97.8007 411.163 99.7513C411.163 102.24 409.869 104.012 407.281 105.07L412.927 113.915H409.208L404.423 105.931H401.197ZM427.146 113.915H415.839V93.927H427.146V96.6888H419.107V102.13H426.64V104.865H419.107V111.14H427.146V113.915ZM448.132 113.915H444.126L434.296 97.9876H434.187L434.255 98.8763C434.383 100.572 434.447 102.121 434.447 103.525V113.915H431.48V93.927H435.445L445.247 109.773H445.329C445.311 109.563 445.275 108.802 445.22 107.49C445.165 106.168 445.138 105.138 445.138 104.4V93.927H448.132V113.915ZM461.913 96.4427C460.036 96.4427 458.559 97.108 457.484 98.4388C456.408 99.7695 455.87 101.606 455.87 103.949C455.87 106.4 456.385 108.255 457.415 109.513C458.454 110.771 459.954 111.4 461.913 111.4C462.761 111.4 463.581 111.318 464.374 111.154C465.167 110.98 465.992 110.762 466.849 110.497V113.3C465.281 113.893 463.504 114.189 461.517 114.189C458.591 114.189 456.344 113.305 454.777 111.536C453.209 109.759 452.425 107.221 452.425 103.921C452.425 101.843 452.803 100.025 453.56 98.4661C454.325 96.9075 455.428 95.7135 456.868 94.8841C458.309 94.0546 459.999 93.6399 461.941 93.6399C463.982 93.6399 465.869 94.0683 467.601 94.9251L466.425 97.6458C465.751 97.3268 465.035 97.0488 464.279 96.8118C463.531 96.5657 462.743 96.4427 461.913 96.4427ZM482.462 113.915H471.156V93.927H482.462V96.6888H474.423V102.13H481.956V104.865H474.423V111.14H482.462V113.915ZM25.6711 141.894C25.6711 145.148 24.8554 147.677 23.2239 149.482C21.6015 151.286 19.3 152.189 16.3196 152.189C13.3027 152.189 10.983 151.296 9.3606 149.509C7.74731 147.713 6.94067 145.166 6.94067 141.866C6.94067 138.567 7.75187 136.033 9.37427 134.265C11.0058 132.497 13.33 131.613 16.3469 131.613C19.3183 131.613 21.6152 132.51 23.2375 134.306C24.8599 136.102 25.6711 138.631 25.6711 141.894ZM10.4133 141.894C10.4133 144.355 10.9101 146.223 11.9036 147.499C12.8971 148.766 14.3691 149.4 16.3196 149.4C18.261 149.4 19.7239 148.771 20.7083 147.513C21.7017 146.255 22.1985 144.382 22.1985 141.894C22.1985 139.442 21.7063 137.583 20.7219 136.316C19.7467 135.049 18.2883 134.415 16.3469 134.415C14.3873 134.415 12.9062 135.049 11.9036 136.316C10.9101 137.583 10.4133 139.442 10.4133 141.894ZM46.6165 151.915H42.6106L32.7805 135.988H32.6711L32.7395 136.876C32.8671 138.572 32.9309 140.121 32.9309 141.525V151.915H29.9641V131.927H33.929L43.7317 147.773H43.8137C43.7955 147.563 43.759 146.802 43.7043 145.49C43.6497 144.168 43.6223 143.138 43.6223 142.4V131.927H46.6165V151.915ZM67.343 141.074H74.6985V151.109C73.4954 151.501 72.3378 151.779 71.2258 151.943C70.123 152.107 68.929 152.189 67.6438 152.189C64.6178 152.189 62.2844 151.296 60.6438 149.509C59.0032 147.713 58.1829 145.184 58.1829 141.921C58.1829 138.704 59.108 136.188 60.9583 134.374C62.8085 132.551 65.356 131.64 68.6008 131.64C70.6881 131.64 72.6659 132.041 74.5344 132.843L73.386 135.564C71.7636 134.816 70.1412 134.443 68.5188 134.443C66.386 134.443 64.6998 135.113 63.4602 136.452C62.2206 137.792 61.6008 139.624 61.6008 141.949C61.6008 144.391 62.1568 146.251 63.2688 147.527C64.3899 148.794 65.9986 149.427 68.095 149.427C69.1523 149.427 70.2825 149.295 71.4856 149.031V143.876H67.343V141.074ZM82.7786 141.224H85.0481C86.5702 141.224 87.6731 140.941 88.3567 140.376C89.0403 139.811 89.3821 138.973 89.3821 137.861C89.3821 136.73 89.0129 135.919 88.2747 135.427C87.5364 134.935 86.4244 134.689 84.9387 134.689H82.7786V141.224ZM82.7786 143.931V151.915H79.511V131.927H85.1575C87.7369 131.927 89.6464 132.41 90.886 133.376C92.1256 134.342 92.7454 135.801 92.7454 137.751C92.7454 140.24 91.4511 142.012 88.8625 143.07L94.509 151.915H90.7903L86.0051 143.931H82.7786ZM108.728 151.915H97.4211V131.927H108.728V134.689H100.689V140.13H108.222V142.865H100.689V149.14H108.728V151.915ZM124.368 151.915H113.062V131.927H124.368V134.689H116.329V140.13H123.863V142.865H116.329V149.14H124.368V151.915ZM143.96 151.915H140.173L133.898 142.865L131.97 144.437V151.915H128.702V131.927H131.97V141.47C132.863 140.376 133.752 139.324 134.636 138.312L140.036 131.927H143.755C140.264 136.029 137.762 138.95 136.249 140.691L143.96 151.915ZM153.886 151.915V131.927H157.154V149.113H165.616V151.915H153.886ZM169.062 151.915V131.927H172.329V151.915H169.062ZM194.273 151.915H190.267L180.437 135.988H180.327L180.396 136.876C180.523 138.572 180.587 140.121 180.587 141.525V151.915H177.62V131.927H181.585L191.388 147.773H191.47C191.452 147.563 191.415 146.802 191.361 145.49C191.306 144.168 191.279 143.138 191.279 142.4V131.927H194.273V151.915ZM207.726 141.074H215.081V151.109C213.878 151.501 212.721 151.779 211.609 151.943C210.506 152.107 209.312 152.189 208.027 152.189C205.001 152.189 202.667 151.296 201.027 149.509C199.386 147.713 198.566 145.184 198.566 141.921C198.566 138.704 199.491 136.188 201.341 134.374C203.191 132.551 205.739 131.64 208.984 131.64C211.071 131.64 213.049 132.041 214.917 132.843L213.769 135.564C212.146 134.816 210.524 134.443 208.902 134.443C206.769 134.443 205.083 135.113 203.843 136.452C202.603 137.792 201.984 139.624 201.984 141.949C201.984 144.391 202.54 146.251 203.652 147.527C204.773 148.794 206.381 149.427 208.478 149.427C209.535 149.427 210.665 149.295 211.868 149.031V143.876H207.726V141.074ZM235.562 131.927V144.861C235.562 146.337 235.243 147.631 234.605 148.743C233.976 149.846 233.06 150.699 231.857 151.3C230.663 151.893 229.232 152.189 227.564 152.189C225.085 152.189 223.157 151.533 221.781 150.22C220.404 148.908 219.716 147.103 219.716 144.806V131.927H222.997V144.574C222.997 146.223 223.38 147.44 224.146 148.224C224.911 149.008 226.087 149.4 227.673 149.4C230.754 149.4 232.294 147.782 232.294 144.546V131.927H235.562ZM240.675 151.915V131.927H243.943V151.915H240.675ZM260.759 146.488C260.759 148.265 260.116 149.659 258.831 150.671C257.546 151.683 255.773 152.189 253.513 152.189C251.253 152.189 249.402 151.838 247.962 151.136V148.046C248.874 148.475 249.84 148.812 250.861 149.058C251.891 149.304 252.848 149.427 253.732 149.427C255.026 149.427 255.978 149.181 256.589 148.689C257.209 148.197 257.519 147.536 257.519 146.706C257.519 145.959 257.236 145.325 256.671 144.806C256.106 144.286 254.939 143.671 253.171 142.96C251.348 142.222 250.063 141.379 249.316 140.431C248.568 139.483 248.195 138.344 248.195 137.013C248.195 135.345 248.787 134.033 249.972 133.075C251.157 132.118 252.747 131.64 254.743 131.64C256.657 131.64 258.562 132.059 260.458 132.898L259.419 135.564C257.642 134.816 256.056 134.443 254.661 134.443C253.604 134.443 252.802 134.675 252.255 135.14C251.708 135.596 251.435 136.202 251.435 136.958C251.435 137.478 251.544 137.924 251.763 138.298C251.982 138.663 252.342 139.009 252.843 139.337C253.344 139.665 254.247 140.098 255.55 140.636C257.017 141.247 258.093 141.816 258.777 142.345C259.46 142.874 259.962 143.471 260.281 144.136C260.6 144.801 260.759 145.585 260.759 146.488ZM271.532 151.915H268.265V134.73H262.386V131.927H277.411V134.73H271.532V151.915ZM280.488 151.915V131.927H283.755V151.915H280.488ZM297.55 134.443C295.672 134.443 294.196 135.108 293.12 136.439C292.045 137.769 291.507 139.606 291.507 141.949C291.507 144.4 292.022 146.255 293.052 147.513C294.091 148.771 295.59 149.4 297.55 149.4C298.398 149.4 299.218 149.318 300.011 149.154C300.804 148.98 301.629 148.762 302.486 148.497V151.3C300.918 151.893 299.141 152.189 297.154 152.189C294.228 152.189 291.981 151.305 290.413 149.536C288.846 147.759 288.062 145.221 288.062 141.921C288.062 139.843 288.44 138.025 289.197 136.466C289.962 134.908 291.065 133.713 292.505 132.884C293.945 132.055 295.636 131.64 297.577 131.64C299.619 131.64 301.506 132.068 303.238 132.925L302.062 135.646C301.387 135.327 300.672 135.049 299.915 134.812C299.168 134.566 298.379 134.443 297.55 134.443ZM318.318 146.488C318.318 148.265 317.675 149.659 316.39 150.671C315.105 151.683 313.332 152.189 311.072 152.189C308.811 152.189 306.961 151.838 305.521 151.136V148.046C306.432 148.475 307.398 148.812 308.419 149.058C309.449 149.304 310.406 149.427 311.29 149.427C312.585 149.427 313.537 149.181 314.148 148.689C314.767 148.197 315.077 147.536 315.077 146.706C315.077 145.959 314.795 145.325 314.23 144.806C313.665 144.286 312.498 143.671 310.73 142.96C308.907 142.222 307.622 141.379 306.874 140.431C306.127 139.483 305.753 138.344 305.753 137.013C305.753 135.345 306.346 134.033 307.531 133.075C308.715 132.118 310.306 131.64 312.302 131.64C314.216 131.64 316.121 132.059 318.017 132.898L316.978 135.564C315.2 134.816 313.615 134.443 312.22 134.443C311.163 134.443 310.361 134.675 309.814 135.14C309.267 135.596 308.993 136.202 308.993 136.958C308.993 137.478 309.103 137.924 309.322 138.298C309.54 138.663 309.9 139.009 310.402 139.337C310.903 139.665 311.805 140.098 313.109 140.636C314.576 141.247 315.652 141.816 316.335 142.345C317.019 142.874 317.52 143.471 317.839 144.136C318.158 144.801 318.318 145.585 318.318 146.488ZM15.9504 189.915H12.7375V177.009C12.7375 175.469 12.774 174.247 12.8469 173.345C12.6373 173.564 12.3775 173.805 12.0676 174.07C11.7668 174.334 10.746 175.172 9.00513 176.585L7.39185 174.548L13.2708 169.927H15.9504V189.915ZM22.5676 181.398C22.5676 173.577 25.7532 169.667 32.1243 169.667C33.1269 169.667 33.9745 169.745 34.6672 169.9V172.579C33.9745 172.379 33.1724 172.279 32.261 172.279C30.1191 172.279 28.5103 172.853 27.4348 174.001C26.3593 175.15 25.776 176.991 25.6848 179.525H25.8489C26.2773 178.786 26.8788 178.217 27.6536 177.816C28.4283 177.406 29.3398 177.2 30.3879 177.2C32.2017 177.2 33.6145 177.756 34.6262 178.868C35.6379 179.98 36.1438 181.489 36.1438 183.394C36.1438 185.49 35.5559 187.149 34.3801 188.37C33.2135 189.583 31.6184 190.189 29.595 190.189C28.164 190.189 26.9198 189.847 25.8625 189.163C24.8053 188.471 23.9895 187.468 23.4153 186.156C22.8502 184.834 22.5676 183.248 22.5676 181.398ZM29.5403 187.536C30.6431 187.536 31.4908 187.181 32.0833 186.47C32.6848 185.759 32.9856 184.743 32.9856 183.421C32.9856 182.273 32.703 181.37 32.1379 180.714C31.5819 180.058 30.7434 179.73 29.6223 179.73C28.9296 179.73 28.2916 179.88 27.7083 180.181C27.1249 180.473 26.6646 180.878 26.3274 181.398C25.9902 181.908 25.8215 182.432 25.8215 182.97C25.8215 184.255 26.1679 185.34 26.8606 186.224C27.5624 187.099 28.4556 187.536 29.5403 187.536ZM38.2629 183.777V181.042H45.2903V183.777H38.2629ZM56.9661 189.915H53.7532V177.009C53.7532 175.469 53.7896 174.247 53.8625 173.345C53.6529 173.564 53.3931 173.805 53.0833 174.07C52.7825 174.334 51.7616 175.172 50.0208 176.585L48.4075 174.548L54.2864 169.927H56.9661V189.915ZM77.05 178.458C77.05 182.396 76.2571 185.335 74.6711 187.277C73.0852 189.218 70.6972 190.189 67.5071 190.189C66.2948 190.189 65.4244 190.116 64.8958 189.97V187.277C65.7069 187.505 66.5227 187.618 67.343 187.618C69.5123 187.618 71.1301 187.035 72.1965 185.868C73.2629 184.702 73.8463 182.87 73.9465 180.372H73.7825C73.2447 181.193 72.593 181.785 71.8274 182.15C71.0709 182.514 70.1822 182.697 69.1614 182.697C67.3931 182.697 66.0032 182.145 64.9915 181.042C63.9797 179.939 63.4739 178.426 63.4739 176.503C63.4739 174.416 64.0572 172.757 65.2239 171.527C66.3997 170.287 67.9993 169.667 70.0227 169.667C71.4446 169.667 72.6842 170.014 73.7415 170.706C74.7987 171.399 75.6145 172.406 76.1887 173.728C76.7629 175.04 77.05 176.617 77.05 178.458ZM70.0774 172.333C68.9654 172.333 68.1132 172.698 67.5208 173.427C66.9283 174.147 66.6321 175.163 66.6321 176.476C66.6321 177.615 66.9055 178.513 67.4524 179.169C68.0084 179.816 68.8469 180.14 69.968 180.14C71.0527 180.14 71.9641 179.816 72.7024 179.169C73.4407 178.522 73.8098 177.766 73.8098 176.9C73.8098 176.088 73.6503 175.332 73.3313 174.63C73.0214 173.919 72.5839 173.359 72.0188 172.949C71.4537 172.538 70.8066 172.333 70.0774 172.333ZM99.7317 184.488C99.7317 186.265 99.0891 187.659 97.804 188.671C96.5188 189.683 94.746 190.189 92.4856 190.189C90.2252 190.189 88.3749 189.838 86.9348 189.136V186.046C87.8463 186.475 88.8124 186.812 89.8333 187.058C90.8632 187.304 91.8202 187.427 92.7043 187.427C93.9986 187.427 94.9511 187.181 95.5618 186.689C96.1816 186.197 96.4915 185.536 96.4915 184.706C96.4915 183.959 96.2089 183.325 95.6438 182.806C95.0787 182.286 93.912 181.671 92.1438 180.96C90.3209 180.222 89.0357 179.379 88.2883 178.431C87.5409 177.483 87.1672 176.344 87.1672 175.013C87.1672 173.345 87.7597 172.033 88.9446 171.075C90.1295 170.118 91.72 169.64 93.7161 169.64C95.6301 169.64 97.5351 170.059 99.4309 170.898L98.3918 173.564C96.6145 172.816 95.0286 172.443 93.634 172.443C92.5767 172.443 91.7747 172.675 91.2278 173.14C90.6809 173.596 90.4075 174.202 90.4075 174.958C90.4075 175.478 90.5168 175.924 90.7356 176.298C90.9543 176.663 91.3144 177.009 91.8157 177.337C92.317 177.665 93.2193 178.098 94.5227 178.636C95.9902 179.247 97.0657 179.816 97.7493 180.345C98.4329 180.874 98.9342 181.471 99.2532 182.136C99.5722 182.801 99.7317 183.585 99.7317 184.488ZM114.907 189.915H103.601V169.927H114.907V172.689H106.868V178.13H114.402V180.865H106.868V187.14H114.907V189.915ZM132.476 175.97C132.476 178.057 131.792 179.657 130.425 180.769C129.058 181.881 127.112 182.437 124.587 182.437H122.509V189.915H119.241V169.927H124.997C127.495 169.927 129.363 170.437 130.603 171.458C131.851 172.479 132.476 173.983 132.476 175.97ZM122.509 179.689H124.245C125.922 179.689 127.153 179.397 127.937 178.814C128.721 178.23 129.113 177.319 129.113 176.079C129.113 174.931 128.762 174.074 128.06 173.509C127.358 172.944 126.264 172.661 124.779 172.661H122.509V179.689ZM143.372 189.915H140.105V172.73H134.226V169.927H149.251V172.73H143.372V189.915ZM163.634 189.915H152.327V169.927H163.634V172.689H155.595V178.13H163.128V180.865H155.595V187.14H163.634V189.915ZM176.609 189.915L170.812 173.222H170.702C170.857 175.701 170.935 178.025 170.935 180.195V189.915H167.968V169.927H172.575L178.126 185.827H178.208L183.923 169.927H188.544V189.915H185.4V180.031C185.4 179.037 185.422 177.743 185.468 176.148C185.523 174.553 185.568 173.587 185.605 173.249H185.495L179.493 189.915H176.609ZM193.808 169.927H199.741C202.494 169.927 204.481 170.328 205.702 171.13C206.933 171.932 207.548 173.199 207.548 174.931C207.548 176.098 207.247 177.068 206.646 177.843C206.044 178.618 205.178 179.105 204.048 179.306V179.443C205.452 179.707 206.482 180.231 207.138 181.015C207.803 181.79 208.136 182.842 208.136 184.173C208.136 185.969 207.507 187.377 206.249 188.398C205.001 189.409 203.26 189.915 201.027 189.915H193.808V169.927ZM197.075 178.185H200.22C201.587 178.185 202.585 177.971 203.214 177.542C203.843 177.105 204.157 176.366 204.157 175.327C204.157 174.389 203.816 173.71 203.132 173.29C202.458 172.871 201.382 172.661 199.906 172.661H197.075V178.185ZM197.075 180.837V187.167H200.548C201.915 187.167 202.945 186.908 203.638 186.388C204.34 185.859 204.691 185.03 204.691 183.9C204.691 182.861 204.335 182.09 203.624 181.589C202.913 181.088 201.833 180.837 200.384 180.837H197.075ZM223.599 189.915H212.292V169.927H223.599V172.689H215.56V178.13H223.093V180.865H215.56V187.14H223.599V189.915ZM231.2 179.224H233.47C234.992 179.224 236.095 178.941 236.779 178.376C237.462 177.811 237.804 176.973 237.804 175.861C237.804 174.73 237.435 173.919 236.697 173.427C235.958 172.935 234.846 172.689 233.361 172.689H231.2V179.224ZM231.2 181.931V189.915H227.933V169.927H233.579C236.159 169.927 238.068 170.41 239.308 171.376C240.547 172.342 241.167 173.801 241.167 175.751C241.167 178.24 239.873 180.012 237.284 181.07L242.931 189.915H239.212L234.427 181.931H231.2ZM265.257 189.915H251.708V187.482L256.863 182.3C258.385 180.741 259.392 179.639 259.884 178.991C260.385 178.335 260.75 177.72 260.978 177.146C261.206 176.572 261.32 175.956 261.32 175.3C261.32 174.398 261.046 173.687 260.499 173.167C259.962 172.648 259.214 172.388 258.257 172.388C257.491 172.388 256.749 172.529 256.029 172.812C255.318 173.094 254.493 173.605 253.554 174.343L251.818 172.224C252.93 171.285 254.01 170.62 255.058 170.228C256.106 169.836 257.223 169.64 258.407 169.64C260.267 169.64 261.757 170.128 262.878 171.103C263.999 172.069 264.56 173.372 264.56 175.013C264.56 175.915 264.396 176.772 264.068 177.583C263.749 178.394 263.252 179.233 262.577 180.099C261.912 180.956 260.8 182.118 259.241 183.585L255.769 186.949V187.085H265.257V189.915ZM281.253 179.921C281.253 183.394 280.693 185.973 279.572 187.659C278.46 189.346 276.755 190.189 274.458 190.189C272.234 190.189 270.548 189.318 269.4 187.577C268.251 185.837 267.677 183.284 267.677 179.921C267.677 176.394 268.233 173.796 269.345 172.128C270.466 170.451 272.17 169.613 274.458 169.613C276.691 169.613 278.382 170.488 279.531 172.238C280.679 173.988 281.253 176.549 281.253 179.921ZM270.931 179.921C270.931 182.646 271.209 184.592 271.765 185.759C272.33 186.926 273.228 187.509 274.458 187.509C275.689 187.509 276.587 186.917 277.152 185.732C277.726 184.547 278.013 182.61 278.013 179.921C278.013 177.241 277.726 175.305 277.152 174.111C276.587 172.908 275.689 172.306 274.458 172.306C273.228 172.306 272.33 172.894 271.765 174.07C271.209 175.245 270.931 177.196 270.931 179.921ZM297.249 189.915H283.7V187.482L288.855 182.3C290.377 180.741 291.384 179.639 291.876 178.991C292.378 178.335 292.742 177.72 292.97 177.146C293.198 176.572 293.312 175.956 293.312 175.3C293.312 174.398 293.038 173.687 292.491 173.167C291.954 172.648 291.206 172.388 290.249 172.388C289.484 172.388 288.741 172.529 288.021 172.812C287.31 173.094 286.485 173.605 285.546 174.343L283.81 172.224C284.922 171.285 286.002 170.62 287.05 170.228C288.098 169.836 289.215 169.64 290.4 169.64C292.259 169.64 293.749 170.128 294.87 171.103C295.991 172.069 296.552 173.372 296.552 175.013C296.552 175.915 296.388 176.772 296.06 177.583C295.741 178.394 295.244 179.233 294.57 180.099C293.904 180.956 292.792 182.118 291.234 183.585L287.761 186.949V187.085H297.249V189.915ZM309.13 189.915H305.917V177.009C305.917 175.469 305.954 174.247 306.027 173.345C305.817 173.564 305.557 173.805 305.247 174.07C304.947 174.334 303.926 175.172 302.185 176.585L300.572 174.548L306.45 169.927H309.13V189.915ZM23.593 207.927V220.861C23.593 222.337 23.274 223.631 22.636 224.743C22.0071 225.846 21.0911 226.699 19.8879 227.3C18.6939 227.893 17.2629 228.189 15.595 228.189C13.1158 228.189 11.1881 227.533 9.81177 226.22C8.43547 224.908 7.74731 223.103 7.74731 220.806V207.927H11.0286V220.574C11.0286 222.223 11.4114 223.44 12.177 224.224C12.9426 225.008 14.1184 225.4 15.7043 225.4C18.7851 225.4 20.3254 223.782 20.3254 220.546V207.927H23.593ZM45.3586 227.915H41.3528L31.5227 211.988H31.4133L31.4817 212.876C31.6093 214.572 31.6731 216.121 31.6731 217.525V227.915H28.7063V207.927H32.6711L42.4739 223.773H42.5559C42.5377 223.563 42.5012 222.802 42.4465 221.49C42.3918 220.168 42.3645 219.138 42.3645 218.4V207.927H45.3586V227.915ZM50.636 227.915V207.927H53.9036V227.915H50.636ZM70.5833 207.927H73.9739L66.9739 227.915H63.5286L56.5559 207.927H59.9192L64.0891 220.355C64.3079 220.947 64.5403 221.713 64.7864 222.652C65.0325 223.581 65.192 224.274 65.2649 224.73C65.3834 224.037 65.5657 223.235 65.8118 222.324C66.0579 221.412 66.2584 220.738 66.4133 220.3L70.5833 207.927ZM87.9192 227.915H76.6125V207.927H87.9192V210.689H79.8801V216.13H87.4133V218.865H79.8801V225.14H87.9192V227.915ZM95.5208 217.224H97.7903C99.3124 217.224 100.415 216.941 101.099 216.376C101.782 215.811 102.124 214.973 102.124 213.861C102.124 212.73 101.755 211.919 101.017 211.427C100.279 210.935 99.1666 210.689 97.6809 210.689H95.5208V217.224ZM95.5208 219.931V227.915H92.2532V207.927H97.8997C100.479 207.927 102.389 208.41 103.628 209.376C104.868 210.342 105.488 211.801 105.488 213.751C105.488 216.24 104.193 218.012 101.605 219.07L107.251 227.915H103.532L98.7473 219.931H95.5208ZM121.689 222.488C121.689 224.265 121.046 225.659 119.761 226.671C118.476 227.683 116.703 228.189 114.443 228.189C112.182 228.189 110.332 227.838 108.892 227.136V224.046C109.803 224.475 110.769 224.812 111.79 225.058C112.82 225.304 113.777 225.427 114.661 225.427C115.956 225.427 116.908 225.181 117.519 224.689C118.139 224.197 118.448 223.536 118.448 222.706C118.448 221.959 118.166 221.325 117.601 220.806C117.036 220.286 115.869 219.671 114.101 218.96C112.278 218.222 110.993 217.379 110.245 216.431C109.498 215.483 109.124 214.344 109.124 213.013C109.124 211.345 109.717 210.033 110.902 209.075C112.087 208.118 113.677 207.64 115.673 207.64C117.587 207.64 119.492 208.059 121.388 208.898L120.349 211.564C118.572 210.816 116.986 210.443 115.591 210.443C114.534 210.443 113.732 210.675 113.185 211.14C112.638 211.596 112.365 212.202 112.365 212.958C112.365 213.478 112.474 213.924 112.693 214.298C112.911 214.663 113.271 215.009 113.773 215.337C114.274 215.665 115.176 216.098 116.48 216.636C117.947 217.247 119.023 217.816 119.706 218.345C120.39 218.874 120.891 219.471 121.21 220.136C121.529 220.801 121.689 221.585 121.689 222.488ZM125.558 227.915V207.927H128.825V227.915H125.558ZM141.021 227.915H137.753V210.73H131.874V207.927H146.9V210.73H141.021V227.915ZM155.622 217.046L160.353 207.927H163.907L157.249 220.163V227.915H153.968V220.273L147.337 207.927H150.892L155.622 217.046ZM191.566 217.894C191.566 221.148 190.75 223.677 189.118 225.482C187.496 227.286 185.195 228.189 182.214 228.189C179.197 228.189 176.878 227.296 175.255 225.509C173.642 223.713 172.835 221.166 172.835 217.866C172.835 214.567 173.646 212.033 175.269 210.265C176.9 208.497 179.225 207.613 182.241 207.613C185.213 207.613 187.51 208.51 189.132 210.306C190.754 212.102 191.566 214.631 191.566 217.894ZM176.308 217.894C176.308 220.355 176.805 222.223 177.798 223.499C178.792 224.766 180.264 225.4 182.214 225.4C184.156 225.4 185.618 224.771 186.603 223.513C187.596 222.255 188.093 220.382 188.093 217.894C188.093 215.442 187.601 213.583 186.616 212.316C185.641 211.049 184.183 210.415 182.241 210.415C180.282 210.415 178.801 211.049 177.798 212.316C176.805 213.583 176.308 215.442 176.308 217.894ZM199.099 227.915H195.859V207.927H207.138V210.689H199.099V216.937H206.632V219.712H199.099V227.915ZM218.034 207.927H223.968C226.721 207.927 228.708 208.328 229.929 209.13C231.159 209.932 231.775 211.199 231.775 212.931C231.775 214.098 231.474 215.068 230.872 215.843C230.271 216.618 229.405 217.105 228.275 217.306V217.443C229.678 217.707 230.708 218.231 231.365 219.015C232.03 219.79 232.363 220.842 232.363 222.173C232.363 223.969 231.734 225.377 230.476 226.398C229.227 227.409 227.486 227.915 225.253 227.915H218.034V207.927ZM221.302 216.185H224.447C225.814 216.185 226.812 215.971 227.441 215.542C228.07 215.105 228.384 214.366 228.384 213.327C228.384 212.389 228.042 211.71 227.359 211.29C226.684 210.871 225.609 210.661 224.132 210.661H221.302V216.185ZM221.302 218.837V225.167H224.775C226.142 225.167 227.172 224.908 227.865 224.388C228.566 223.859 228.917 223.03 228.917 221.9C228.917 220.861 228.562 220.09 227.851 219.589C227.14 219.088 226.06 218.837 224.611 218.837H221.302ZM247.825 227.915H236.519V207.927H247.825V210.689H239.786V216.13H247.32V218.865H239.786V225.14H247.825V227.915ZM252.159 227.915V207.927H255.427V225.113H263.89V227.915H252.159ZM275.511 217.074H282.866V227.109C281.663 227.501 280.506 227.779 279.394 227.943C278.291 228.107 277.097 228.189 275.812 228.189C272.786 228.189 270.452 227.296 268.812 225.509C267.171 223.713 266.351 221.184 266.351 217.921C266.351 214.704 267.276 212.188 269.126 210.374C270.976 208.551 273.524 207.64 276.769 207.64C278.856 207.64 280.834 208.041 282.702 208.843L281.554 211.564C279.932 210.816 278.309 210.443 276.687 210.443C274.554 210.443 272.868 211.113 271.628 212.452C270.389 213.792 269.769 215.624 269.769 217.949C269.769 220.391 270.325 222.251 271.437 223.527C272.558 224.794 274.167 225.427 276.263 225.427C277.32 225.427 278.45 225.295 279.654 225.031V219.876H275.511V217.074ZM290.947 217.224H293.216C294.738 217.224 295.841 216.941 296.525 216.376C297.208 215.811 297.55 214.973 297.55 213.861C297.55 212.73 297.181 211.919 296.443 211.427C295.704 210.935 294.592 210.689 293.107 210.689H290.947V217.224ZM290.947 219.931V227.915H287.679V207.927H293.325C295.905 207.927 297.814 208.41 299.054 209.376C300.294 210.342 300.913 211.801 300.913 213.751C300.913 216.24 299.619 218.012 297.031 219.07L302.677 227.915H298.958L294.173 219.931H290.947ZM317.99 227.915L315.993 222.365H308.351L306.396 227.915H302.95L310.429 207.845H313.984L321.462 227.915H317.99ZM315.132 219.548L313.259 214.107C313.122 213.742 312.931 213.168 312.685 212.384C312.448 211.6 312.284 211.026 312.193 210.661C311.947 211.783 311.587 213.008 311.113 214.339L309.308 219.548H315.132ZM340.357 217.73C340.357 221.029 339.441 223.554 337.609 225.304C335.777 227.045 333.138 227.915 329.693 227.915H324.101V207.927H330.281C333.462 207.927 335.936 208.784 337.704 210.497C339.473 212.211 340.357 214.622 340.357 217.73ZM336.911 217.839C336.911 213.054 334.674 210.661 330.198 210.661H327.368V225.167H329.693C334.505 225.167 336.911 222.725 336.911 217.839ZM355.97 227.915H344.663V207.927H355.97V210.689H347.931V216.13H355.464V218.865H347.931V225.14H355.97V227.915Z" fill="#6A6A6A"/>
</g>
<defs>
<clipPath id="clip0">
<rect width="2560" height="333.333" fill="white" transform="translate(-88 -53)"/>
</clipPath>
</defs>
</svg>
